HIERARCHY
ROOT Hips
{
	OFFSET 0.0000 0.0000 0.0000
	CHANNELS 6 Xposition Yposition Zposition Zrotation Xrotation Yrotation
	JOINT Ab
	{
		OFFSET -0.0000 8.0846 -0.0000
		CHANNELS 3 Zrotation Xrotation Yrotation
		JOINT Chest
		{
			OFFSET -0.0000 25.0068 -0.0000
			CHANNELS 3 Zrotation Xrotation Yrotation
			JOINT Neck
			{
				OFFSET -0.0000 25.0068 0.0000
				CHANNELS 3 Zrotation Xrotation Yrotation
				JOINT Head
				{
					OFFSET -0.0000 10.7556 0.0000
					CHANNELS 3 Zrotation Xrotation Yrotation
					End Site
					{
						OFFSET -0.0000 16.6222 0.0000
					}
				}
			}
			JOINT LeftCollar
			{
				OFFSET -0.0000 25.0068 0.0000
				CHANNELS 3 Zrotation Xrotation Yrotation
				JOINT LeftShoulder
				{
					OFFSET 19.5556 -0.0000 0.0000
					CHANNELS 3 Zrotation Xrotation Yrotation
					JOINT LeftElbow
					{
						OFFSET 27.1828 0.0000 0.0000
						CHANNELS 3 Zrotation Xrotation Yrotation
						JOINT LeftWrist
						{
							OFFSET 23.3157 0.0000 0.0000
							CHANNELS 3 Zrotation Xrotation Yrotation
							End Site
							{
								OFFSET 0.0000 -14.6667 0.0000
							}
						}
					}
				}
			}
			JOINT RightCollar
			{
				OFFSET -0.0000 25.0068 0.0000
				CHANNELS 3 Zrotation Xrotation Yrotation
				JOINT RightShoulder
				{
					OFFSET -19.5556 0.0000 0.0000
					CHANNELS 3 Zrotation Xrotation Yrotation
					JOINT RightElbow
					{
						OFFSET -27.1828 0.0000 0.0000
						CHANNELS 3 Zrotation Xrotation Yrotation
						JOINT RightWrist
						{
							OFFSET -23.3157 0.0000 0.0000
							CHANNELS 3 Zrotation Xrotation Yrotation
							End Site
							{
								OFFSET -0.0000 -14.6667 0.0000
							}
						}
					}
				}
			}
		}
	}
	JOINT LeftHip
	{
		OFFSET 11.7333 0.0000 0.0000
		CHANNELS 3 Zrotation Xrotation Yrotation
		JOINT LeftKnee
		{
			OFFSET -0.0000 -40.8688 0.0000
			CHANNELS 3 Zrotation Xrotation Yrotation
			JOINT LeftAnkle
			{
				OFFSET -0.0000 -44.4337 0.0000
				CHANNELS 3 Zrotation Xrotation Yrotation
				End Site
				{
					OFFSET -0.0000 -4.8889 16.6222
				}
			}
		}
	}
	JOINT RightHip
	{
		OFFSET -11.7333 0.0000 0.0000
		CHANNELS 3 Zrotation Xrotation Yrotation
		JOINT RightKnee
		{
			OFFSET -0.0000 -40.8688 0.0000
			CHANNELS 3 Zrotation Xrotation Yrotation
			JOINT RightAnkle
			{
				OFFSET -0.0000 -44.4337 0.0000
				CHANNELS 3 Zrotation Xrotation Yrotation
				End Site
				{
					OFFSET -0.0000 -4.8889 16.6222
				}
			}
		}
	}
}
MOTION
Frames: 9
Frame Time: 0.010000
-2.2969 88.6245 189.7861 2.4291 359.6294 176.1461 2.7189 359.2384 357.9678 358.4092 9.4445 358.0822 358.4301 343.2629 0.6556 5.5195 11.3504 0.3335 338.9905 358.4187 8.4482 299.3966 28.3202 357.8483 15.3374 354.6872 322.0459 82.5926 0.5798 339.3239 22.7926 358.9986 354.9886 58.7509 44.0406 6.4482 339.2531 354.2089 30.9511 276.4391 353.0429 20.4224 2.4964 358.7565 357.4545 359.3691 10.1375 356.8256 357.3958 351.3514 22.3285 1.0694 352.0366 0.0360 358.5609 19.9047 10.7914 355.9673 344.4087 336.3993 
-2.3045 88.6254 189.7710 2.4190 359.6120 176.1439 2.7127 359.2441 357.9698 358.4111 9.4385 358.0840 358.3273 343.2406 0.6155 5.6262 11.3889 0.2944 338.9790 358.4372 8.4946 299.4260 28.2636 357.8449 15.2772 354.7165 322.0705 82.5732 0.5653 339.2735 22.7976 359.0197 355.0367 58.6887 44.0860 6.4983 339.3125 354.1959 31.0728 276.3447 353.2512 20.7172 2.4803 358.7529 357.4580 359.3660 10.1317 356.8307 355.6987 351.0362 22.0141 1.0512 352.0380 0.0350 358.5656 19.8894 10.7927 355.9744 344.4073 336.4161 
-2.3079 88.6265 189.7567 2.4144 359.5956 176.1332 2.6984 359.2371 357.9735 358.4314 9.4673 358.0858 358.2603 343.1966 0.5771 5.6524 11.4188 0.2636 338.9792 358.4194 8.5091 299.4170 28.2027 357.8615 15.2895 354.7221 322.0471 82.5757 0.5402 339.2380 22.7895 358.9960 355.0722 58.6261 44.1616 6.5745 339.1951 354.1568 31.0969 276.4389 353.1511 20.5737 2.4747 358.7524 357.4627 359.3663 10.1248 356.8195 357.3368 351.3260 22.3242 1.0435 352.0347 0.0603 358.5709 19.8816 10.8009 355.9646 344.3982 336.4004 
-2.3129 88.6280 189.7406 2.4128 359.5854 176.1344 2.6756 359.2407 357.9869 358.4578 9.4870 358.0978 358.1735 343.1468 0.5135 5.6964 11.4894 0.2008 338.9785 358.4412 8.4985 299.4255 28.0962 357.8807 15.2112 354.7647 322.0452 82.6234 0.5576 339.1635 22.7731 359.0013 355.0780 58.5527 44.1935 6.6732 339.2980 354.1707 31.2156 276.2564 353.3136 20.8778 2.4699 358.7486 357.4633 359.3657 10.1336 356.8053 355.7764 351.0281 22.0442 1.0378 352.0495 0.0750 358.5803 19.8554 10.7694 355.9785 344.3915 336.4131 
-2.3147 88.6293 189.7237 2.4157 359.5755 176.1421 2.6487 359.2464 358.0012 358.4885 9.5035 358.1095 358.0872 343.0822 0.4459 5.7691 11.5848 0.1369 338.9860 358.4296 8.4566 299.4126 27.9500 357.9384 15.1694 354.7629 321.9931 82.5363 0.5533 338.9925 22.7650 359.0010 355.0809 58.4773 44.2615 6.7664 339.2814 354.1506 31.2711 276.1724 353.2757 20.9278 2.4781 358.7468 357.4177 359.3425 10.1352 356.8284 357.2716 351.2550 22.3302 1.0398 352.0685 0.0793 358.5816 19.8241 10.7347 355.9924 344.3845 336.4337 
-2.3211 88.6315 189.7099 2.4057 359.5603 176.1520 2.6249 359.2611 358.0114 358.4957 9.4907 358.1203 358.0598 343.1036 0.4092 5.8018 11.5537 0.1033 338.9941 358.4419 8.3927 299.4003 27.6787 358.0149 15.0014 354.8384 321.9567 82.5661 0.5224 338.7818 22.7731 359.0173 355.0841 58.3791 44.3193 6.8689 339.2796 354.1322 31.3461 276.1994 353.2680 20.8889 2.4678 358.7412 357.4252 359.3382 10.1296 356.7940 355.9218 351.0170 22.0992 1.0198 352.0793 0.0891 358.5922 19.7950 10.7572 355.9580 344.3787 336.3918 
-2.3262 88.6339 189.6904 2.3994 359.5514 176.1522 2.6070 359.2807 358.0208 358.4987 9.4722 358.1292 358.0017 343.1155 0.3662 5.8593 11.5535 0.0649 339.0033 358.4337 8.3598 299.3817 27.5375 358.0964 14.9736 354.8111 321.8608 82.3362 0.6490 338.5617 22.7769 359.0125 355.0936 58.3027 44.4154 6.9693 339.2244 354.1066 31.3876 276.1257 353.3065 20.9029 2.4609 358.7356 357.4105 359.3306 10.1537 356.7907 357.2232 351.2430 22.3362 1.0068 352.0942 0.1204 358.6091 19.7781 10.7377 355.9969 344.3406 336.3850 
-2.3342 88.6364 189.6764 2.3883 359.5234 176.1561 2.5921 359.2775 358.0294 358.4922 9.4844 358.1385 357.9538 343.0698 0.3260 5.9089 11.5900 0.0239 339.0139 358.4417 8.3605 299.3902 27.4316 358.1010 14.8460 354.8530 321.9028 82.6402 0.5388 338.5438 22.7865 359.0042 355.0978 58.1799 44.4981 7.1126 339.2135 354.0863 31.4406 276.0832 353.2740 20.9002 2.4570 358.7137 357.3839 359.3011 10.1543 356.7940 356.0521 351.0097 22.1545 0.9854 352.0803 0.1242 358.6127 19.7763 10.7800 356.0420 344.3039 336.3590 
-2.3415 88.6389 189.6636 2.3776 359.4944 176.1794 2.5814 359.2965 358.0237 358.4788 9.4567 358.1342 357.9000 343.0386 0.2800 5.9649 11.6456 359.9777 339.0212 358.4507 8.3699 299.4091 27.3865 358.1078 14.8023 354.8646 321.9341 82.7008 0.4741 338.4798 22.8135 359.0227 355.0880 58.0214 44.5472 7.2700 339.2698 354.0976 31.5164 276.1151 353.2381 20.9682 2.4495 358.6637 357.3600 359.2799 10.1979 356.7832 357.2876 351.2281 22.3971 0.9632 352.0704 0.1287 358.6277 19.7676 10.7517 356.1688 344.1880 336.3603 
